<?xml version="1.0" standalone="no"?>
<!DOCTYPE svg PUBLIC "-//W3C//DTD SVG 20010904//EN"
 "http://www.w3.org/TR/2001/REC-SVG-20010904/DTD/svg10.dtd">
<svg version="1.0" xmlns="http://www.w3.org/2000/svg"
 width="260.000000pt" height="260.000000pt" viewBox="0 0 260.000000 260.000000"
 preserveAspectRatio="xMidYMid meet">
<metadata>
Created by potrace 1.14, written by Peter Selinger 2001-2017
</metadata>
<g transform="translate(0.000000,260.000000) scale(0.100000,-0.100000)"
fill="#000000" stroke="none">
<path d="M1085 2515 c-601 -110 -1033 -641 -1013 -1245 l3 -95 590 -3 c664 -3
717 1 829 61 79 42 116 106 116 201 0 106 -78 224 -175 267 -42 19 -52 19 -98
8 -173 -40 -247 -142 -221 -301 6 -33 10 -38 34 -38 57 0 61 6 55 84 -5 57 -3
78 12 106 26 51 76 80 135 80 65 0 105 -18 150 -68 91 -101 75 -272 -32 -331
-59 -33 -172 -41 -235 -16 -42 16 -115 87 -115 112 0 6 -10 23 -22 38 -17 22
-23 48 -29 132 -5 57 -13 112 -19 121 -7 12 -8 2 -5 -38 3 -30 10 -122 16
-203 14 -201 17 -197 -132 -197 -121 0 -196 14 -207 39 -4 9 -5 107 -2 218 4
171 8 205 22 219 14 14 43 17 185 19 166 2 168 2 180 26 18 33 16 85 -3 103
-13 13 -41 16 -152 15 -75 0 -155 -3 -177 -7 l-40 -7 -3 -60 c-6 -118 -52
-104 -52 16 0 57 3 70 21 82 19 14 19 16 4 25 -9 5 -15 17 -13 28 5 26 79 37
182 27 74 -7 81 -10 80 -29 0 -20 6 -22 110 -28 l111 -7 50 56 50 56 101 -1
100 0 55 -46 c30 -25 58 -55 63 -65 14 -30 36 -23 36 11 l0 30 96 0 c139 0
137 3 133 -138 -2 -65 3 -215 10 -334 8 -119 11 -224 8 -232 -5 -12 -23 -16
-79 -17 l-73 -1 55 -10 c84 -15 740 8 752 26 11 16 9 138 -3 241 -34 277 -159
536 -353 729 -182 182 -425 306 -676 346 -88 14 -329 11 -415 -5z"/>
<path d="M1229 1910 l-54 -59 -120 8 c-66 5 -125 5 -131 0 -5 -4 -57 -10 -114
-11 l-104 -3 -7 -29 c-5 -17 -4 -53 0 -80 l9 -51 1 62 c2 91 6 93 214 93 97 0
177 -4 188 -10 27 -15 28 -119 1 -143 -10 -10 -24 -17 -30 -17 -20 0 -23 -18
-11 -67 6 -26 14 -82 19 -123 l7 -75 2 68 c1 86 17 123 74 173 49 43 151 84
210 84 101 0 231 -145 244 -272 11 -108 -44 -207 -138 -248 -116 -49 -162 -53
-807 -57 l-604 -4 7 -52 c4 -29 18 -90 32 -137 131 -459 522 -805 993 -880 84
-13 306 -13 390 0 251 40 494 164 676 346 184 183 319 453 349 697 l7 58 -193
-8 c-243 -10 -662 -10 -712 0 -72 15 -25 27 105 27 l131 0 -7 177 c-4 97 -9
202 -13 232 l-5 56 -109 0 c-71 1 -113 5 -121 13 -25 25 9 35 119 36 l108 1 7
35 c9 48 10 128 1 133 -5 3 -51 6 -103 8 l-95 4 -5 -30 c-6 -36 -24 -39 -237
-40 -111 0 -155 3 -165 13 -20 20 4 29 101 36 82 7 196 -3 234 -19 32 -13 8
18 -51 67 l-57 48 -91 0 -90 0 -55 -60z m-530 -1015 c23 -22 6 -29 -24 -9 -21
13 -31 15 -50 6 -39 -18 -30 -37 35 -75 l59 -36 3 67 c3 77 22 90 26 19 l3
-48 39 49 c28 35 45 48 62 47 22 -2 23 -4 23 -110 0 -105 -1 -108 -23 -112
-20 -3 -27 5 -49 57 -21 48 -29 58 -40 49 -7 -6 -13 -31 -13 -55 0 -45 -18
-70 -27 -36 -5 20 -5 20 -24 1 -32 -32 -119 -20 -119 16 0 19 8 19 26 0 20
-20 58 -19 79 1 23 23 15 46 -22 65 -69 34 -84 49 -81 77 5 48 79 65 117 27z
m423 -1 c27 -25 10 -37 -19 -14 -31 24 -45 25 -83 5 -38 -20 -57 -74 -40 -116
24 -56 82 -76 128 -43 32 22 43 7 13 -17 -28 -23 -88 -25 -119 -3 -28 19 -52
65 -52 99 0 89 109 145 172 89z m125 15 c33 -12 43 -26 43 -61 0 -26 -18 -52
-42 -60 -8 -3 -3 -19 16 -52 35 -59 13 -57 -27 2 -17 25 -36 42 -48 42 -16 0
-19 -7 -19 -45 0 -25 -4 -45 -10 -45 -6 0 -10 45 -10 115 l0 115 34 0 c19 0
47 -5 63 -11z m178 1 c4 -6 -15 -10 -49 -10 l-56 0 0 -45 0 -45 40 0 c22 0 40
-4 40 -10 0 -5 -18 -10 -40 -10 l-40 0 0 -40 0 -40 55 0 c30 0 55 -4 55 -10 0
-6 -28 -10 -65 -10 l-65 0 0 115 0 115 59 0 c33 0 63 -4 66 -10z m145 -90 c17
-47 34 -96 36 -110 5 -24 5 -24 -10 -6 -9 11 -16 26 -16 33 0 9 -15 13 -50 13
-46 0 -51 -2 -66 -32 -32 -62 -25 -9 11 89 21 54 39 102 42 106 9 15 21 -6 53
-93z m210 -17 c0 -69 -4 -113 -10 -113 -6 0 -10 42 -10 105 l0 105 -40 0 -40
0 0 -105 c0 -63 -4 -105 -10 -105 -6 0 -10 42 -10 105 l0 105 -41 0 c-26 0
-38 4 -34 11 4 6 43 9 101 8 l94 -3 0 -113z m325 107 c4 -6 -15 -10 -49 -10
l-56 0 0 -45 0 -45 40 0 c22 0 40 -4 40 -10 0 -5 -18 -10 -40 -10 l-40 0 0
-40 0 -40 55 0 c30 0 55 -4 55 -10 0 -6 -28 -10 -65 -10 l-65 0 0 115 0 115
59 0 c33 0 63 -4 66 -10z m-261 -88 c17 -45 33 -82 36 -82 3 0 19 37 36 82 18
45 37 84 43 86 6 2 -4 -38 -23 -90 -46 -125 -47 -128 -56 -128 -9 0 -9 1 -56
128 -18 52 -28 92 -22 90 6 -2 25 -41 42 -86z"/>
<path d="M815 864 l-28 -36 31 -62 31 -61 1 98 c0 53 -2 97 -4 97 -2 0 -16
-16 -31 -36z"/>
<path d="M1170 850 l0 -50 33 0 c38 0 67 25 67 58 0 25 -27 42 -69 42 -30 0
-31 -1 -31 -50z"/>
<path d="M1511 841 c-7 -24 -15 -49 -18 -57 -4 -10 4 -14 32 -14 35 0 37 1 31
26 -4 15 -13 40 -19 57 l-13 30 -13 -42z"/>
<path d="M715 1910 c-4 -6 -5 -13 -4 -15 2 -1 54 -4 114 -6 93 -3 110 -2 110
11 0 12 -20 16 -107 18 -69 2 -109 -1 -113 -8z"/>
<path d="M1275 1851 l-30 -7 40 -7 c49 -8 209 -7 250 2 28 6 27 7 -19 14 -59
8 -199 7 -241 -2z"/>
<path d="M1673 1703 c-60 -6 -53 -23 10 -25 116 -3 193 10 132 23 -33 7 -76 8
-142 2z"/>
<path d="M751 1656 c-9 -10 -13 -79 -14 -222 l-2 -207 55 -13 c68 -16 214 -18
242 -3 20 11 20 15 12 173 -5 88 -9 189 -9 224 l0 62 -136 0 c-107 0 -139 -3
-148 -14z"/>
<path d="M1305 1616 c-50 -15 -86 -64 -84 -115 1 -27 3 -30 6 -11 6 33 31 60
57 60 15 0 17 3 8 12 -19 19 -14 26 26 39 34 10 45 8 85 -9 68 -30 89 -69 85
-155 -3 -60 -7 -71 -36 -100 -30 -30 -37 -32 -102 -32 -64 0 -71 2 -103 33
-18 18 -36 29 -40 26 -4 -4 -23 -10 -42 -13 l-35 -6 25 -37 c38 -56 89 -78
179 -78 88 0 120 10 164 53 63 61 68 182 9 259 -54 71 -126 97 -202 74z"/>
<path d="M1330 1580 c8 -5 25 -10 37 -10 34 0 73 -40 80 -82 3 -23 2 -38 -4
-38 -6 0 -31 20 -55 45 -37 37 -52 45 -81 45 -48 0 -65 -27 -69 -107 -2 -57 0
-65 25 -90 24 -24 35 -28 88 -28 56 0 63 3 89 32 61 68 42 197 -34 228 -41 17
-101 21 -76 5z"/>
<path d="M1345 1546 c37 -19 56 -34 79 -66 l18 -25 -7 30 c-9 42 -35 65 -81
71 l-39 5 30 -15z"/>
</g>
</svg>
